<svg width="297" height="112" viewBox="0 0 297 112" fill="none" xmlns="http://www.w3.org/2000/svg">
<path d="M259.035 10.1331C258.245 9.88318 257.402 10.3209 257.152 11.1107C256.902 11.9005 257.34 12.7434 258.13 12.9933L259.035 10.1331ZM237.789 8.95139C238.251 13.3455 242.188 16.5332 246.582 16.0713C250.976 15.6095 254.163 11.673 253.702 7.27893C253.24 2.88486 249.303 -0.30285 244.909 0.158985C240.515 0.620821 237.327 4.55731 237.789 8.95139ZM293.078 40.8195C293.763 47.3372 290.707 54.145 284.127 60.9348C277.556 67.717 267.618 74.315 254.981 80.3363C229.721 92.3728 193.986 101.96 153.773 106.186L154.087 109.17C194.546 104.917 230.63 95.2628 256.272 83.0446C269.086 76.9385 279.37 70.1557 286.282 63.0225C293.187 55.8969 296.876 48.2545 296.062 40.5059L293.078 40.8195ZM153.773 106.186C113.56 110.413 76.6127 108.465 49.4021 101.944C35.7898 98.6811 24.6975 94.2935 16.8591 89.0259C9.01197 83.7523 4.6068 77.7288 3.92176 71.211L0.938192 71.5246C1.7526 79.2732 6.95062 85.9815 15.1858 91.5158C23.4298 97.0561 34.899 101.553 48.7029 104.861C76.3244 111.481 113.627 113.422 154.087 109.17L153.773 106.186ZM3.92176 71.211C3.23672 64.6933 6.29327 57.8856 12.8725 51.0957C19.4444 44.3135 29.3821 37.7155 42.0186 31.6942C67.2787 19.6577 103.014 10.0708 143.227 5.84428L142.913 2.86072C102.454 7.11318 66.3696 16.7677 40.7281 28.986C27.9137 35.092 17.63 41.8748 10.7181 49.0081C3.81349 56.1337 0.123784 63.7761 0.938192 71.5246L3.92176 71.211ZM258.13 12.9933C268.68 16.3315 277.167 20.4553 283.146 25.1939C289.121 29.9287 292.486 35.1864 293.078 40.8195L296.062 40.5059C295.358 33.8137 291.38 27.8914 285.009 22.8427C278.643 17.7978 269.784 13.5345 259.035 10.1331L258.13 12.9933ZM143.227 5.84428C182.371 1.73003 218.424 3.466 245.414 9.57811L246.077 6.65221C218.695 0.451219 182.301 -1.27911 142.913 2.86072L143.227 5.84428Z" fill="#050729"/>
</svg>
