<svg width="145" height="165" viewBox="0 0 145 165" fill="none" xmlns="http://www.w3.org/2000/svg">
<path d="M20.0768 65.4523C25.4458 68.984 30.3316 73.0615 35.8834 75.7135C41.9316 78.6466 48.5153 81.2274 55.0727 82.1545C62.7666 83.3974 68.8924 78.8361 70.851 72.0791C72.9011 64.8822 69.8438 58.2348 62.3586 54.652C52.692 49.9978 42.3074 49.6894 31.949 51.0348C29.2974 51.3359 26.9462 51.9711 24.5428 52.4128C12.5112 41.3393 13.0592 35.5863 28.4693 2.3598C23.5445 -1.08434 20.0963 1.71559 17.0531 5.23647C6.70893 16.7501 3.81136 38.7075 10.6705 52.424C11.4806 53.8659 12.0424 55.1672 13.1006 56.7497C11.6509 58.3869 10.0965 59.6372 8.79046 61.0281C-0.443587 71.2038 -2.3493 84.3819 5.16277 95.8461C9.44791 102.369 15.2482 108.276 21.4795 113.443C32.0479 122.213 44.6798 127.727 57.7295 131.675C73.5486 136.535 89.5504 140.516 105.513 145.13C107.786 145.761 110.307 146.533 113.325 147.586C108.806 151.091 104.665 153.662 101.374 157.043C100.015 158.24 99.1927 162.199 99.9896 162.814C101.636 164.238 104.32 163.817 106.593 164.449C107.037 164.536 107.788 164.444 108.376 164.285C117.754 160.091 127.328 155.843 136.955 151.789C145.458 148.247 146.555 146.082 143.08 137.887C139.043 128.39 132.236 121.095 124.124 115.19C121.485 113.204 118.559 111.711 115.228 115.725C117.045 124.784 126.555 128.857 130.736 138.108C127.235 137.6 124.675 137.462 122.402 136.83C102.298 131.674 82.1035 126.958 62.3263 120.676C51.5495 117.359 41.2819 112.037 31.6021 106.556C25.6453 103.183 20.1977 97.8043 15.978 92.3013C8.64906 83.0713 10.3724 73.8868 20.0768 65.4523ZM34.5106 63.6287C34.6933 62.749 35.1243 62.0097 35.3071 61.13C41.6814 59.8231 47.8861 60.2227 54.0648 62.0825C59.7993 63.8548 62.2031 66.5269 60.9233 69.5713C58.7293 73.9008 54.8758 72.866 51.6101 71.6723C45.6664 69.1262 40.2583 66.2278 34.5106 63.6287Z" fill="#050729"/>
</svg>
